<?xml version="1.0" standalone="no"?>
<!DOCTYPE svg PUBLIC "-//W3C//DTD SVG 20010904//EN"
 "http://www.w3.org/TR/2001/REC-SVG-20010904/DTD/svg10.dtd">
<svg version="1.0" xmlns="http://www.w3.org/2000/svg"
 width="558.000000pt" height="558.000000pt" viewBox="0 0 558.000000 558.000000"
 preserveAspectRatio="xMidYMid meet">
<metadata>
Created by potrace 1.14, written by Peter Selinger 2001-2017
</metadata>
<g transform="translate(0.000000,558.000000) scale(0.100000,-0.100000)"
fill="#000000" stroke="none">
<path d="M4728 5545 c-2 -2 -23 -6 -48 -9 -118 -16 -232 -59 -343 -130 -141
-91 -365 -294 -458 -416 -115 -150 -217 -421 -244 -646 -3 -27 -8 -59 -11 -72
-2 -12 -7 -93 -9 -179 l-5 -156 -28 -17 c-86 -52 -519 -273 -647 -330 -155
-69 -380 -185 -448 -229 -65 -43 -85 -51 -124 -51 -103 0 -154 -69 -145 -197
2 -26 74 -100 111 -115 91 -36 151 -15 386 138 94 61 269 169 390 239 332 193
488 286 507 302 19 17 24 8 33 -72 17 -157 79 -428 141 -615 58 -173 418 -907
473 -963 29 -29 90 -25 118 8 33 38 29 72 -23 171 -127 245 -284 556 -309 614
-15 36 -36 84 -46 106 -10 23 -26 64 -34 90 -9 27 -20 58 -25 69 -4 11 -11 31
-14 45 -4 14 -17 68 -31 120 -13 52 -26 111 -29 130 -3 19 -7 44 -10 55 -2 11
-7 47 -10 80 -4 33 -9 71 -11 85 -2 14 -6 68 -10 120 l-6 96 48 34 c26 18 71
50 98 70 28 20 86 63 130 96 398 292 653 559 836 874 77 133 120 233 135 312
9 51 7 150 -4 179 -25 63 -99 124 -182 148 -39 12 -145 22 -152 16z m133 -295
c16 -24 3 -101 -27 -166 -115 -245 -369 -552 -624 -755 -171 -137 -395 -286
-386 -257 3 7 7 47 11 88 22 269 128 535 272 685 100 105 293 246 458 336 136
73 271 105 296 69z"/>
<path d="M1018 3679 c-107 -16 -189 -84 -245 -201 -26 -55 -77 -226 -89 -298
-3 -14 -9 -49 -15 -79 -12 -60 -14 -70 -24 -151 -4 -30 -8 -66 -11 -80 -17
-103 -23 -412 -11 -570 61 -805 407 -1451 901 -1679 493 -228 986 -113 1352
314 66 77 133 194 184 320 57 141 162 473 162 514 0 68 -92 111 -142 66 -12
-11 -51 -114 -99 -259 -84 -257 -119 -339 -189 -451 -89 -140 -276 -297 -437
-368 -197 -85 -399 -92 -630 -19 -225 70 -378 189 -563 437 -27 37 -99 166
-141 256 -73 154 -149 397 -176 564 -31 185 -33 203 -41 335 -9 139 -9 272 0
404 21 312 107 610 204 713 60 62 136 53 244 -28 176 -131 354 -386 492 -702
20 -46 32 -61 61 -73 56 -23 110 -9 146 39 45 60 25 155 -65 321 -26 47 -52
91 -59 98 -7 8 -28 34 -47 58 -85 110 -261 286 -375 375 -162 126 -262 163
-387 144z"/>
</g>
</svg>
